:SAMPLES-PER-SECOND 30
:FRAME-RANGE 1-2775
:FULLY-SPECIFIED
:DEGREES
2168
root  -7.68027 38.8327 49.2804 -175.161 -17.7894 178.886
RightUpLeg  1.2463 -10.5228 -13.8145
RightLeg  7.20535 3.02225 -1.68822
RightFoot  -12.2957 0.0684256 18.1696
RightToes  -5.28216e-011 1.2921e-014 -6.02303e-014
Spine  6.36595 -0.192885 3.48917
Spine1  -2.37769 0.189083 -2.00096
HEad  -4.30218 -30.1547 0.402557
LeftShoulder1  1.21579 0.383697 -32.9034
LeftArm  10.51 17.4047 -28.665
LeftForeArm  4.48907 -12.4335 -13.202
LeftHand  0.681697 -4.30746 -7.87193
RightShoulder  4.54149 4.82295 47.8038
RightArm  17.6075 -0.497725 10.4409
RightForeArm  10.5992 7.58342 15.6067
RightHand  0.149265 4.28898 1.5092
LeftUpLeg  -22.0417 21.6857 6.03908
LeftLeg  13.1503 4.64643 0.105561
LeftFoot  -0.217836 0.781745 -8.00716
LeftToes  -2.158e-010 -1.26819e-010 -1.05346e-011
2169
root  -8.71169 38.5604 48.8514 -175.473 -18.3415 178.516
RightUpLeg  2.90105 -10.9161 -15.8026
RightLeg  7.58043 3.07379 -2.13279
RightFoot  -12.974 0.201972 20.2112
RightToes  -5.28216e-011 1.2921e-014 -6.02303e-014
Spine  6.15763 -0.215334 2.65177
Spine1  -2.1375 0.23702 -2.54937
HEad  -3.51226 -31.7264 1.26313
LeftShoulder1  1.21074 0.38774 -32.7926
LeftArm  8.34262 17.7877 -27.9491
LeftForeArm  5.69034 -10.8751 -14.0562
LeftHand  0.672039 -4.04337 -7.99293
RightShoulder  4.61035 5.19055 46.4484
RightArm  24.7867 -0.37774 10.5868
RightForeArm  1.81106 13.9516 12.3891
RightHand  0.129549 4.36673 1.25769
LeftUpLeg  -22.2512 23.498 4.14908
LeftLeg  15.4873 3.09498 0.686571
LeftFoot  3.10744 1.06479 -8.53848
LeftToes  -2.158e-010 -1.26819e-010 -1.05346e-011
2170
root  -9.76746 38.352 48.4656 -175.536 -19.2615 176.887
RightUpLeg  4.38368 -9.96431 -18.8355
RightLeg  8.79341 1.84678 -2.88617
RightFoot  -13.2568 0.299655 23.0672
RightToes  -5.28216e-011 1.2921e-014 -6.02303e-014
Spine  6.69414 -0.280343 0.231575
Spine1  -2.24028 0.169814 -3.25594
HEad  -2.93075 -33.7054 2.19135
LeftShoulder1  1.22624 0.356629 -32.9008
LeftArm  7.326 17.6687 -27.0298
LeftForeArm  5.81636 -9.6697 -14.7207
LeftHand  0.643966 -3.75647 -7.91018
RightShoulder  4.38947 4.93829 45.5198
RightArm  29.9468 -0.349952 10.7885
RightForeArm  -5.83323 19.2247 8.18826
RightHand  0.154349 4.38319 1.54879
LeftUpLeg  -22.8772 23.6346 1.0005
LeftLeg  19.4869 1.57102 0.948954
LeftFoot  1.37475 0.568149 -5.17267
LeftToes  -2.158e-010 -1.26819e-010 -1.05346e-011
2171
root  -10.8662 38.1696 48.12 -175.609 -20.4639 175.202
RightUpLeg  4.53981 -3.67353 -21.408
RightLeg  13.1084 -4.96555 -3.44127
RightFoot  -12.5775 0.214313 27.3796
RightToes  -5.28216e-011 1.2921e-014 -6.02303e-014
Spine  7.24876 -0.307678 -1.71848
Spine1  -2.14053 0.117896 -4.07213
HEad  -2.55788 -36.0565 2.66401
LeftShoulder1  1.3007 0.214048 -33.4735
LeftArm  5.73959 16.4807 -25.8666
LeftForeArm  6.67137 -7.89117 -15.5236
LeftHand  0.633827 -3.61086 -7.91894
RightShoulder  4.25424 4.72592 45.2485
RightArm  28.9702 -0.510772 10.6001
RightForeArm  -8.42104 22.5887 5.68978
RightHand  0.176651 4.34529 1.82298
LeftUpLeg  -22.5287 21.8341 -1.42016
LeftLeg  22.6662 2.04609 1.27631
LeftFoot  -1.44595 0.401707 -4.53965
LeftToes  -2.158e-010 -1.26819e-010 -1.05346e-011
2172
root  -11.8528 38.1071 47.8174 -175.511 -20.8987 173.997
RightUpLeg  2.55401 3.60741 -23.0131
RightLeg  20.3146 -13.0574 -5.49062
RightFoot  -9.7205 -0.546154 32.9762
RightToes  -5.28216e-011 1.2921e-014 -6.02303e-014
Spine  7.61985 -0.0478291 -3.2911
Spine1  -1.93545 0.380706 -5.57406
HEad  -1.69965 -38.125 2.29154
LeftShoulder1  1.32172 0.201457 -33.9544
LeftArm  3.4007 15.3027 -25.3288
LeftForeArm  7.80306 -6.32945 -16.006
LeftHand  0.592436 -3.3058 -7.67017
RightShoulder  4.32631 4.80645 45.5799
RightArm  24.5096 -0.449914 10.2508
RightForeArm  -6.95435 24.5316 5.59979
RightHand  0.187843 4.22064 1.99005
LeftUpLeg  -21.6813 20.4829 -3.40821
LeftLeg  24.1513 2.93423 1.78738
LeftFoot  -3.72401 0.278765 -3.85128
LeftToes  -2.158e-010 -1.26819e-010 -1.05346e-011
2173
root  -12.8594 38.2677 47.4692 -175.632 -20.8719 173.562
RightUpLeg  -2.10424 5.51209 -23.4201
RightLeg  30.7752 -15.6409 -10.0502
RightFoot  -3.81421 -1.73721 25.604
RightToes  -5.28216e-011 1.2921e-014 -6.02303e-014
Spine  8.25362 0.11752 -4.03763
Spine1  -2.53712 0.501227 -5.98698
HEad  -0.442756 -39.3996 1.50333
LeftShoulder1  1.28599 0.282699 -33.8545
LeftArm  2.31028 15.1601 -25.5397
LeftForeArm  7.62738 -6.23026 -15.9604
LeftHand  0.544206 -3.06526 -7.24762
RightShoulder  4.64447 5.26888 46.3718
RightArm  22.22 -0.107344 10.4565
RightForeArm  -5.62396 25.1565 5.67605
RightHand  0.185151 4.29647 1.93719
LeftUpLeg  -19.6689 20.4495 -4.71097
LeftLeg  23.4032 3.06806 1.80527
LeftFoot  -5.06457 0.20924 -3.2614
LeftToes  -2.158e-010 -1.26819e-010 -1.05346e-011
2174
root  -13.7705 38.4769 47.0789 -175.943 -21.3372 173.429
RightUpLeg  -7.00151 6.54326 -22.5988
RightLeg  40.3752 -15.8966 -14.2571
RightFoot  2.77737 -1.78196 14.4734
RightToes  -5.28216e-011 1.2921e-014 -6.02303e-014
Spine  8.45109 -0.00650734 -5.12702
Spine1  -2.41106 0.203487 -5.41299
HEad  0.52126 -40.0741 0.644309
LeftShoulder1  1.30183 0.228026 -33.6745
LeftArm  2.70871 14.8349 -25.9726
LeftForeArm  6.99439 -6.69523 -15.8198
LeftHand  0.518336 -2.98299 -6.96772
RightShoulder  4.97438 5.75194 47.0856
RightArm  21.9513 0.550635 11.5073
RightForeArm  -5.00241 25.3771 5.69545
RightHand  0.184003 4.21554 1.94509
LeftUpLeg  -17.0826 20.0621 -5.22119
LeftLeg  21.8664 3.3143 1.3124
LeftFoot  -5.97774 0.161282 -2.67681
LeftToes  -2.158e-010 -1.26819e-010 -1.05346e-011
2175
root  -14.5397 38.5826 46.6469 -176.171 -22.5112 173.501
RightUpLeg  -10.5139 6.62275 -21.0486
RightLeg  45.906 -10.1061 -11.2715
RightFoot  0.250667 -1.61864 15.8695
RightToes  -5.28216e-011 1.2921e-014 -6.02303e-014
Spine  8.387 -0.378942 -6.42005
Spine1  -1.9877 -0.415054 -4.99621
HEad  1.64472 -40.6217 -0.351156
LeftShoulder1  1.36035 0.0669672 -33.519
LeftArm  4.84136 13.9161 -26.3489
LeftForeArm  6.40421 -7.20324 -15.7971
LeftHand  0.494393 -2.92496 -6.68747
RightShoulder  5.25775 6.11282 47.9102
RightArm  23.0157 0.773581 12.6266
RightForeArm  -4.18484 25.7562 5.74139
RightHand  0.229877 4.69535 2.34912
LeftUpLeg  -14.9369 17.0103 -4.70923
LeftLeg  21.1732 5.38214 0.527991
LeftFoot  -7.19868 0.143166 -2.76359
LeftToes  -2.158e-010 -1.26819e-010 -1.05346e-011
